#N canvas 1 84 465 325 10;
#X obj 50 271 *~;
#X obj 80 157 osc~;
#X floatatom 80 137 5 0 0 0 - - -;
#X msg 16 136 start;
#X msg 41 157 stop;
#X obj 66 241 eadsr~ 0 0;
#X text 141 99 exponential attack/decay/sustain/release envelope;
#X text 213 134 60db attack and decay time;
#X text 213 164 sustain level;
#X text 213 184 60db release time;
#X obj 80 116 mtof;
#X obj 16 58 swap;
#X obj 16 37 unpack f f;
#X obj 16 79 route 1 0;
#X obj 143 124 init \$1;
#X obj 143 144 init \$2;
#X obj 143 164 init \$3;
#X obj 143 184 init \$4;
#X obj 50 292 outlet~;
#X obj 16 16 inlet;
#X connect 0 0 18 0;
#X connect 1 0 0 0;
#X connect 2 0 1 0;
#X connect 3 0 5 0;
#X connect 4 0 5 0;
#X connect 5 0 0 1;
#X connect 10 0 2 0;
#X connect 11 0 13 0;
#X connect 11 1 10 0;
#X connect 12 0 11 0;
#X connect 12 1 11 1;
#X connect 13 0 3 0;
#X connect 13 1 4 0;
#X connect 14 0 5 1;
#X connect 15 0 5 2;
#X connect 16 0 5 3;
#X connect 17 0 5 4;
#X connect 19 0 12 0;
